<svg width="19" height="20" viewBox="0 0 19 20" fill="none" xmlns="http://www.w3.org/2000/svg">
<path d="M9.44 12.76C8.096 12.76 7.04 11.68 7.04 10.12C7.04 8.56 8.096 7.48 9.44 7.48C10.784 7.48 11.84 8.56 11.84 10.12C11.84 11.68 10.784 12.76 9.44 12.76ZM14.12 15.88C13.808 16.192 13.448 16.456 13.016 16.672C12.272 17.056 11.192 17.44 9.68 17.44C5.576 17.44 2.36 14.2 2.36 10C2.36 5.8 5.576 2.56 9.68 2.56C14 2.56 17 5.56 17 9.52C17 11.8 16.04 12.76 15.08 12.76C14.336 12.76 13.76 12.16 13.76 11.32V5.8H11.84V7C11.672 6.76 11.48 6.544 11.24 6.352C10.784 5.992 10.16 5.68 9.2 5.68C7.04 5.68 5.12 7.6 5.12 10.12C5.12 12.64 7.04 14.56 9.2 14.56C10.28 14.56 11.024 14.176 11.504 13.72C11.792 13.48 12.032 13.192 12.2 12.88C12.368 13.192 12.608 13.48 12.872 13.72C13.328 14.176 14.048 14.56 15.08 14.56C17.24 14.56 18.92 12.88 18.92 9.52C18.92 4.6 15.08 0.759999 9.68 0.759999C4.52 0.759999 0.44 4.84 0.44 10C0.44 15.16 4.52 19.24 9.68 19.24C11.528 19.24 12.896 18.736 13.832 18.232C14.36 17.944 14.816 17.608 15.2 17.2L14.12 15.88Z" fill="#9198A2"/>
</svg>
