<svg width="270" height="307" viewBox="0 0 270 307" fill="none" xmlns="http://www.w3.org/2000/svg">
<path d="M42.4006 134.693C52.5635 73.2712 111.267 31.4488 173.902 41.8125C236.537 52.1761 278.641 110.678 268.478 172.1C258.315 233.521 199.612 275.344 136.977 264.98C74.3415 254.616 32.2377 196.114 42.4006 134.693Z" stroke="url(#paint0_linear_1_2421)" stroke-width="40"/>
<rect x="133" y="9" width="62" height="35" rx="17.5" fill="#565AA5"/>
<path d="M366 35.7341C366 82.0336 296.787 208 251.5 208C206.213 208 115 147.464 115 101.165C115 54.865 151.713 17.3319 197 17.3319C242.287 17.3319 366 -10.5653 366 35.7341Z" fill="#00A09A"/>
<defs>
<linearGradient id="paint0_linear_1_2421" x1="155.743" y1="153.82" x2="120.425" y2="170.773" gradientUnits="userSpaceOnUse">
<stop offset="0.939087" stop-color="white"/>
<stop offset="1" stop-color="#FCDA1A"/>
</linearGradient>
</defs>
</svg>
