<svg width="70" height="70" viewBox="0 0 70 70" fill="none" xmlns="http://www.w3.org/2000/svg">
<path d="M11.2029 54.9155H7.54196C3.38326 54.9155 0 58.2988 0 62.4575V67.9492C0 69.0819 0.918045 70 2.05078 70H16.6946C17.8274 70 18.7454 69.0819 18.7454 67.9492V62.4575C18.7454 58.2988 15.3622 54.9155 11.2029 54.9155Z" fill="#FF6D15"/>
<path d="M25.8473 43.9321H22.1863C18.0276 43.9321 14.6438 47.3159 14.6438 51.4746V67.9492C14.6438 69.082 15.5624 70 16.6946 70H31.339C32.4712 70 33.3898 69.082 33.3898 67.9492V51.4746C33.3898 47.3159 30.006 43.9321 25.8473 43.9321Z" fill="#FFD12B"/>
<path d="M40.4911 32.9492H36.8302C32.6715 32.9492 29.2882 36.333 29.2882 40.4917V67.9492C29.2882 69.082 30.2063 70 31.339 70H45.9823C47.1151 70 48.0331 69.082 48.0331 67.9492V40.4917C48.0331 36.333 44.6498 32.9492 40.4911 32.9492Z" fill="#80D398"/>
<path d="M69.5973 20.5997L54.9524 0.829925C54.5657 0.308151 53.9548 0 53.3048 0C52.6549 0 52.0434 0.308151 51.6567 0.829925L37.0129 20.5997C36.552 21.2218 36.481 22.0512 36.8292 22.7428C37.1779 23.4344 37.8861 23.8713 38.6604 23.8713H43.9316V67.9492C43.9316 69.082 44.8502 70 45.9824 70H60.6268C61.7595 70 62.6775 69.082 62.6775 67.9492V23.8713H67.9492C68.7236 23.8713 69.4323 23.4344 69.781 22.7428C70.1292 22.0512 70.0582 21.2218 69.5973 20.5997Z" fill="#00B44B"/>
</svg>
