<svg width="70" height="70" viewBox="0 0 70 70" fill="none" xmlns="http://www.w3.org/2000/svg">
<g clip-path="url(#clip0_1_2391)">
<path d="M60.1514 66.5244L68.9618 68.9618L66.5249 60.1514C68.7225 56.7687 70 52.7328 70 48.3984C70 36.4681 60.3288 26.7969 48.3984 26.7969C36.4681 26.7969 26.7969 36.4681 26.7969 48.3984C26.7969 60.3288 36.4681 70 48.3984 70C52.7328 70 56.7687 68.7225 60.1514 66.5244Z" fill="#2A51FF"/>
<path d="M26.7285 0L15.791 26.7285L26.7285 53.457C41.4669 53.457 53.457 41.4669 53.457 26.7285C53.457 11.9901 41.4669 0 26.7285 0Z" fill="#10BEFF"/>
<path d="M0 26.7285C0 31.5318 1.27853 36.2086 3.70636 40.3144L0.0982666 53.3582L13.1426 49.7507C17.2485 52.1785 21.9252 53.457 26.7285 53.457V0C11.9901 0 0 11.9901 0 26.7285Z" fill="#5AECFF"/>
<path d="M24.6777 37.0508H28.7793V41.1523H24.6777V37.0508Z" fill="black"/>
<path d="M24.6777 27.9446V32.9492H26.7285L28.0957 29.5083L26.7285 26.0674L24.6777 27.9446Z" fill="#292C32"/>
<path d="M18.5254 20.5078H22.627C22.627 18.2461 24.4668 16.4062 26.7285 16.4062L28.0957 14.3555L26.7285 12.3047C22.205 12.3047 18.5254 15.9843 18.5254 20.5078Z" fill="#292C32"/>
<path d="M26.7285 12.3047V16.4062C28.9902 16.4062 30.8301 18.2461 30.8301 20.5078C30.8301 21.6726 30.3558 22.7477 29.4949 23.5354L26.7285 26.0674V32.9492H28.7793V29.7507L32.264 26.5614C33.9591 25.0099 34.9316 22.8037 34.9316 20.5078C34.9316 15.9843 31.252 12.3047 26.7285 12.3047Z" fill="black"/>
</g>
<defs>
<clipPath id="clip0_1_2391">
<rect width="70" height="70" fill="white"/>
</clipPath>
</defs>
</svg>
