<svg width="70" height="70" viewBox="0 0 70 70" fill="none" xmlns="http://www.w3.org/2000/svg">
<g clip-path="url(#clip0_1_2405)">
<path d="M51.4723 48.7396L52.9986 47.9339L62.1838 42.9812L63.2867 42.3852C65.643 41.1122 68.5844 41.9167 69.9655 44.2117L48.3194 59.0745C45.4016 60.5194 42.0956 60.986 38.8917 60.4057L26.3791 58.1005C25.2283 57.8118 24.01 57.9741 22.9747 58.5531L16.1986 62.8368L11.4641 47.3087L11.5042 47.2959C12.9649 47.0267 14.3235 46.3614 15.4318 45.3734L17.5055 43.5287C21.6519 40.4086 27.1951 39.8672 31.8671 42.1257L32.7256 42.5407C34.069 43.1909 35.5419 43.5287 37.0342 43.5287H45.3609C48.4014 43.5299 50.9904 45.738 51.4723 48.7396Z" fill="#F7CAA5"/>
<path d="M62.983 25.4662V31.5234H46.4158V24.6034C46.4176 23.232 46.0105 21.8916 45.2462 20.7535C46.2815 19.9144 47.566 19.4423 48.8985 19.4107C49.8549 20.7043 51.3551 21.4839 52.9628 21.5234C54.5712 21.5629 56.1078 20.858 57.1268 19.613C57.1772 19.5432 57.2344 19.4788 57.2982 19.4204C60.4924 19.6173 62.9824 22.2659 62.983 25.4662Z" fill="#F8EC7D"/>
<path d="M62.1761 42.9673L62.184 42.9813L52.9987 47.9339L51.4724 48.7396C51.247 47.319 50.5312 46.0223 49.4503 45.0733L55.3538 41.8924L56.8564 41.0819C58.7121 40.1407 61.148 41.1584 62.1761 42.9673Z" fill="#EDB288"/>
<path d="M58.3713 9.31404V12.007C58.3713 14.98 55.9609 17.3904 52.9878 17.3904C50.0148 17.3904 47.6044 14.98 47.6044 12.007V9.31404C47.6044 6.341 50.0148 3.9306 52.9878 3.9306C55.9609 3.9306 58.3713 6.341 58.3713 9.31404Z" fill="#F8EC7D"/>
<path d="M55.2803 41.7558L55.3538 41.8925L49.4502 45.0733C48.3225 44.0756 46.8673 43.5257 45.361 43.5288H43.5145L48.424 40.8595C50.6484 39.5696 53.4623 39.9372 55.2803 41.7558Z" fill="#EDB288"/>
<path d="M45.2462 20.7536C46.0106 21.8916 46.4177 23.232 46.4159 24.6034V34.5986H23.5782V24.6034C23.577 20.8483 26.5707 17.7781 30.3245 17.6845C31.417 19.1622 33.1311 20.053 34.9685 20.0979C36.8059 20.1435 38.5613 19.3384 39.7255 17.916C39.7838 17.837 39.8488 17.7629 39.9199 17.6954C42.0751 17.8279 44.045 18.9593 45.2462 20.7536Z" fill="#E48E66"/>
<path d="M41.1472 6.15025V9.22537C41.1472 12.6225 38.3935 15.3762 34.997 15.3762C31.6004 15.3762 28.8467 12.6225 28.8467 9.22537V6.15025C28.8467 2.7537 31.6004 0 34.997 0C38.3935 0 41.1472 2.7537 41.1472 6.15025Z" fill="#E48E66"/>
<path d="M24.4834 20.5682L24.7259 20.7845C23.9755 21.9165 23.5763 23.2447 23.5781 24.6034V31.5234H6.98541V25.4662C6.98541 22.1802 9.60544 19.4939 12.8902 19.4107C13.8472 20.7043 15.3474 21.4839 16.9557 21.5234C18.5641 21.5629 20.1007 20.858 21.1203 19.613C21.1707 19.5432 21.2272 19.4788 21.2898 19.4204C22.4425 19.4885 23.5507 19.8871 24.4834 20.5682Z" fill="#F8EC7D"/>
<path d="M22.3648 9.31404V12.007C22.3648 14.98 19.9544 17.3904 16.9813 17.3904C14.0083 17.3904 11.5979 14.98 11.5979 12.007V9.31404C11.5979 6.341 14.0083 3.9306 16.9813 3.9306C19.9544 3.9306 22.3648 6.341 22.3648 9.31404Z" fill="#F8EC7D"/>
<path d="M51.5501 50.653C51.5361 50.653 51.5222 50.653 51.5082 50.6518L44.407 50.3297C42.3272 50.2362 40.2425 50.3322 38.1802 50.6177C37.8485 50.6657 37.5167 50.5327 37.3101 50.269C37.1035 50.0053 37.0549 49.651 37.1813 49.3405C37.3083 49.0307 37.5915 48.8125 37.9238 48.7688C40.0991 48.468 42.2974 48.3665 44.4915 48.465L50.5251 48.739C50.0536 46.2581 47.8862 44.4626 45.361 44.4614H37.0343C35.4016 44.459 33.7902 44.0895 32.3192 43.3805L31.4606 42.9649C27.1174 40.8528 21.9576 41.3498 18.0968 44.2512L16.0522 46.0704C14.8163 47.172 13.3016 47.9133 11.6738 48.2128C11.3438 48.2784 11.0042 48.1612 10.7848 47.906C10.5655 47.6514 10.5005 47.2977 10.6141 46.9812C10.7283 46.6652 11.0036 46.4343 11.3353 46.3778C12.6277 46.1396 13.8302 45.5509 14.8109 44.6765L16.8853 42.8312C16.9041 42.8136 16.9241 42.7978 16.9442 42.7826C21.3652 39.4395 27.2888 38.861 32.2736 41.2848L33.1322 41.7004C34.3498 42.2874 35.6829 42.593 37.0343 42.5948H45.361C49.2953 42.5948 52.4846 45.7848 52.4834 49.7191C52.4834 50.2343 52.066 50.6524 51.5501 50.6524V50.653Z" fill="#EDB288"/>
<path d="M16.1986 62.8368L18.383 69.9999H3.34401L0.00335693 42.5984H10.0283L11.4641 47.3087L16.1986 62.8368ZM12.0796 65.2059C12.0796 64.0988 11.1822 63.2008 10.0751 63.2008C8.96745 63.2008 8.07001 64.0988 8.07001 65.2059C8.07001 66.3136 8.96745 67.211 10.0751 67.211C11.1822 67.211 12.0802 66.3136 12.0796 65.2059Z" fill="#E48E66"/>
<path d="M12.0796 65.2059C12.0796 66.3135 11.1821 67.211 10.0751 67.211C8.96739 67.211 8.06995 66.3135 8.06995 65.2059C8.06995 64.0988 8.96739 63.2007 10.0751 63.2007C11.1821 63.2007 12.0796 64.0988 12.0796 65.2059Z" fill="#F8EC7D"/>
</g>
<defs>
<clipPath id="clip0_1_2405">
<rect width="70" height="70" fill="white"/>
</clipPath>
</defs>
</svg>
