<svg width="30" height="30" viewBox="0 0 30 30" fill="none" xmlns="http://www.w3.org/2000/svg">
<path d="M25.7565 23.9994L21.9707 20.2136C21.4037 19.6466 20.4764 19.6466 19.9094 20.2136L18.1908 21.9322C17.6238 22.4992 16.6965 22.4992 16.1295 21.9322L7.86692 13.6814C7.29993 13.1144 7.29993 12.1872 7.86692 11.6202L9.58559 9.90152C9.86318 9.62394 10.3829 8.7203 9.58559 7.8403L5.79978 4.05449C5.25052 3.50522 4.28782 3.50522 3.73856 4.05449L2.70499 5.08215C0.962693 6.82445 0 9.14554 0 11.6143C0 14.083 0.962693 16.4041 2.70499 18.1523L11.6468 27.0942C13.4482 28.8955 15.8165 29.7992 18.1849 29.7992C20.5532 29.7992 22.9215 28.8955 24.7229 27.0942L25.7565 26.0606C26.3235 25.4936 26.3235 24.5664 25.7565 23.9994ZM4.42957 4.73369C4.73078 4.46792 5.02018 4.63919 5.12058 4.73369L8.90639 8.5195C9.17807 8.8148 9.00089 9.11601 8.90639 9.2046L7.87282 10.2382L3.396 5.76726L4.42957 4.73369ZM18.1849 28.8306C15.976 28.8306 13.897 27.9683 12.3378 26.4091L3.396 17.4613C1.83679 15.9021 0.974505 13.8232 0.974505 11.6143C0.974505 9.73615 1.60055 7.95251 2.75224 6.49961L7.18181 10.9292C6.23093 11.8801 6.23093 13.4216 7.18181 14.3665L15.4385 22.6232C16.3894 23.5741 17.9309 23.5741 18.8759 22.6232L23.3054 27.0528C21.8525 28.1986 20.0689 28.8306 18.1849 28.8306ZM25.0655 25.3755L24.0378 26.4091L19.5669 21.9381L20.6005 20.9046C20.7894 20.7156 21.0966 20.7156 21.2856 20.9046L25.0714 24.6904C25.2545 24.8794 25.2545 25.1865 25.0655 25.3755Z" fill="#3639A4"/>
</svg>
