<svg width="30" height="30" viewBox="0 0 30 30" fill="none" xmlns="http://www.w3.org/2000/svg">
<g clip-path="url(#clip0_1_2248)">
<path d="M16.9023 3.14967H16.2786V15.9355L7.17261 25.0416L7.60918 25.4781C10.0416 27.973 13.3472 29.3451 16.8399 29.3451C24.0748 29.3451 30 23.4823 30 16.2474C30 9.01247 24.1372 3.14967 16.9023 3.14967ZM16.8399 28.0977C13.9085 28.0977 11.1019 27.0374 8.91895 25.0416L17.4636 16.4969V4.39705C23.7007 4.7089 28.6903 9.948 28.6903 16.2474C28.6903 22.7962 23.3888 28.0977 16.8399 28.0977Z" fill="#3639A4"/>
<path d="M0.0625 16.9334L0.124894 17.5571C0.374345 20.5509 1.74652 23.4199 3.8671 25.5405L4.30367 25.9771L14.8442 15.4365L0.0625 16.9334ZM1.37234 18.0561L11.4139 17.0582L4.30374 24.1684C2.74445 22.4844 1.74652 20.3014 1.37234 18.0561Z" fill="#3639A4"/>
<path d="M13.0977 0.654858C5.8628 0.654858 0 6.51765 0 13.7526C0 14.1892 0 14.6258 0.0623944 15.0624L0.124789 15.6861L13.7215 14.3139V0.654858H13.0977ZM12.474 13.1913L1.24738 14.3139C1.24738 14.1268 1.24738 13.9397 1.24738 13.7526C1.24738 7.3908 6.23697 2.21409 12.474 1.90224V13.1913Z" fill="#3639A4"/>
</g>
<defs>
<clipPath id="clip0_1_2248">
<rect width="30" height="30" fill="white"/>
</clipPath>
</defs>
</svg>
