<svg width="30" height="30" viewBox="0 0 30 30" fill="none" xmlns="http://www.w3.org/2000/svg">
<g clip-path="url(#clip0_1_2258)">
<path d="M23.8477 3.57422H19.3945V0H10.6055V4.03038L7.71126 1.1364L6.46843 2.37923L7.66319 3.57422H0.878906V5.33203H7.57988L6.46156 6.4753L7.71812 7.70439L10.6055 4.75296V8.84766H19.3945V5.33203H23.8477C26.2708 5.33203 28.2422 7.30339 28.2422 9.72656C28.2422 12.1497 26.2708 14.1211 23.8477 14.1211H22.3954L23.5316 12.9847L22.2887 11.7419L19.3945 14.6358V10.6055H10.6055V14.1211H6.21094C2.78618 14.1211 0 16.881 0 20.2734C0 23.6659 2.78618 26.4258 6.21094 26.4258H7.6046L6.46843 27.5622L7.71126 28.805L10.6055 25.911V30H19.3945V21.1523H10.6055V25.1827L7.71126 22.2887L6.46843 23.5316L7.6046 24.668H6.21094C3.75549 24.668 1.75781 22.6966 1.75781 20.2734C1.75781 17.8503 3.75549 15.8789 6.21094 15.8789H10.6055V19.3945H19.3945V15.3642L22.2887 18.2581L23.5316 17.0153L22.3954 15.8789H23.8477C27.2401 15.8789 30 13.119 30 9.72656C30 6.33408 27.2401 3.57422 23.8477 3.57422ZM17.6367 7.08984H12.3633V1.75781H17.6367V7.08984ZM12.3633 22.9102H17.6367V28.2422H12.3633V22.9102ZM17.6367 17.6367H12.3633V12.3633H17.6367V17.6367Z" fill="#9198A2"/>
</g>
<defs>
<clipPath id="clip0_1_2258">
<rect width="30" height="30" fill="white"/>
</clipPath>
</defs>
</svg>
