<svg width="40" height="22" viewBox="0 0 40 22" fill="none" xmlns="http://www.w3.org/2000/svg">
<path d="M2.64824 21.1426H12.2323C12.7541 21.1426 13.2371 20.9732 13.63 20.6871C14.0229 20.9732 14.5058 21.1426 15.0277 21.1426H24.6121C25.134 21.1426 25.6169 20.9732 26.0098 20.6871C26.4027 20.9732 26.8857 21.1426 27.4075 21.1426H36.9916C38.3046 21.1426 39.3727 20.0741 39.3727 18.7611V14.2917C39.3727 12.2845 38.2493 10.5408 36.5678 9.68054C37.3826 8.69788 37.8732 7.4375 37.8732 6.06421C37.8732 2.93577 35.328 0.390608 32.1996 0.390608C29.0711 0.390608 26.526 2.93577 26.526 6.06421C26.526 7.4375 27.0165 8.69826 27.8314 9.68054C27.1047 10.0529 26.4825 10.5903 26.0098 11.2423C25.5372 10.59 24.915 10.0525 24.1879 9.68054C25.0028 8.69826 25.4933 7.4375 25.4933 6.06421C25.4933 2.93577 22.9482 0.390608 19.8197 0.390608C16.6913 0.390608 14.1461 2.93577 14.1461 6.06421C14.1461 7.4375 14.6371 8.69826 15.4519 9.68092C14.7248 10.0529 14.1026 10.5903 13.63 11.2427C13.1574 10.5903 12.5352 10.0529 11.8081 9.68054C12.6229 8.69826 13.1135 7.4375 13.1135 6.06459C13.1135 2.93577 10.5683 0.390608 7.43988 0.390608C4.31183 0.390608 1.76666 2.93577 1.76666 6.06459C1.76666 7.4375 2.25723 8.69826 3.07205 9.68092C1.39053 10.5411 0.266724 12.2852 0.266724 14.2921V18.7611C0.266724 20.0741 1.33522 21.1426 2.64824 21.1426ZM32.1999 2.35785C34.2435 2.35785 35.9063 4.02029 35.9063 6.06421C35.9063 8.10774 34.2435 9.77057 32.1999 9.77057C30.156 9.77057 28.4936 8.10812 28.4936 6.06421C28.4932 4.02029 30.156 2.35785 32.1999 2.35785ZM29.6445 11.1275C30.4131 11.5169 31.281 11.7378 32.1996 11.7378C33.1185 11.7378 33.9864 11.5169 34.7546 11.1275C36.2832 11.3937 37.4059 12.7109 37.4059 14.2917V18.7611C37.4059 18.9896 37.2201 19.1753 36.9916 19.1753H27.4075C27.1794 19.1753 26.9936 18.9896 26.9936 18.7611V14.2917C26.9933 12.7113 28.1163 11.3937 29.6445 11.1275ZM19.8201 2.35785C21.8636 2.35785 23.5265 4.02029 23.5265 6.06421C23.5265 8.10774 21.8636 9.77057 19.8201 9.77057C17.7762 9.77057 16.1137 8.10812 16.1137 6.06421C16.1137 4.02029 17.7762 2.35785 19.8201 2.35785ZM17.265 11.1275C18.0333 11.5169 18.9011 11.7378 19.8201 11.7378C20.7391 11.7378 21.6065 11.5169 22.3752 11.1275C23.9034 11.3937 25.0264 12.7109 25.0264 14.2917V18.7611C25.0264 18.9896 24.8406 19.1753 24.6121 19.1753H15.0281C14.7996 19.1753 14.6138 18.9896 14.6138 18.7611V14.2917C14.6138 12.7113 15.7369 11.3937 17.265 11.1275ZM7.44026 2.35785C9.4838 2.35785 11.1466 4.02029 11.1466 6.06421C11.1466 8.10774 9.4838 9.77057 7.44026 9.77057C5.39673 9.77057 3.7339 8.10774 3.7339 6.06421C3.7339 4.02029 5.39673 2.35785 7.44026 2.35785ZM2.23396 14.2917C2.23396 12.7113 3.35701 11.3937 4.88518 11.1275C5.65384 11.5169 6.5213 11.7378 7.44026 11.7378C8.35922 11.7378 9.22669 11.5169 9.99535 11.1275C11.5239 11.3937 12.6466 12.7109 12.6466 14.2917V18.7611C12.6466 18.9896 12.4608 19.1753 12.2323 19.1753H2.64824C2.41974 19.1753 2.23396 18.9896 2.23396 18.7611V14.2917Z" fill="#9198A2"/>
</svg>
