<svg width="24" height="24" viewBox="0 0 24 24" fill="none" xmlns="http://www.w3.org/2000/svg">
<g clip-path="url(#clip0_1_2550)">
<path d="M12 3C6.45514 3 1.75076 6.76016 0 12C1.75076 17.2399 6.45514 21 12 21C17.5449 21 22.2492 17.2398 24 12C22.2492 6.76016 17.5449 3 12 3ZM12 18C8.68627 18 6 15.3137 6 12C6 8.68629 8.68627 6.00002 12 6.00002C15.3137 6.00002 18 8.68629 18 12C18 15.3137 15.3137 18 12 18Z" fill="#9198A2"/>
<path d="M14.1211 9.87867C15.2927 11.0502 15.2927 12.9497 14.1211 14.1213C12.9495 15.2929 11.0501 15.2929 9.87849 14.1213C8.70693 12.9497 8.70693 11.0502 9.87849 9.87867C11.0501 8.70711 12.9495 8.70711 14.1211 9.87867Z" fill="#9198A2"/>
</g>
<defs>
<clipPath id="clip0_1_2550">
<rect width="24" height="24" fill="white"/>
</clipPath>
</defs>
</svg>
