<svg width="67" height="67" viewBox="0 0 67 67" fill="none" xmlns="http://www.w3.org/2000/svg">
<g clip-path="url(#clip0_1_2213)">
<path d="M5.58337 6.69763H20.1V8.93101H5.58337V6.69763Z" fill="#29485A"/>
<path d="M5.58337 11.1644H20.1V13.3977H5.58337V11.1644Z" fill="#29485A"/>
<path d="M5.58337 15.631H15.6334V17.8644H5.58337V15.631Z" fill="#29485A"/>
<path d="M5.58337 20.0977H15.6334V22.331H5.58337V20.0977Z" fill="#29485A"/>
<path d="M0 64.7643H67V66.9977H0V64.7643Z" fill="#29485A"/>
<path d="M4.5617 50.2477L4.37183 48.0143C27.7068 45.992 47.694 30.4882 55.4537 8.38823L58.1337 0.745911L60.242 1.48291L57.562 9.12536C49.5143 32.0583 28.7754 48.1495 4.5617 50.2477Z" fill="#ED1C24"/>
<path d="M5.58337 54.7144H13.4V61.4144H5.58337V54.7144Z" fill="#ED1C24"/>
<path d="M17.8667 51.3644H25.6833V61.4144H17.8667V51.3644Z" fill="#FBB03B"/>
<path d="M30.15 45.781H37.9666V61.4144H30.15V45.781Z" fill="#F8CF26"/>
<path d="M42.4333 37.9644H50.25V61.4144H42.4333V37.9644Z" fill="#39B54A"/>
<path d="M54.7166 22.3311H62.5332V61.4144H54.7166V22.3311Z" fill="#0071BC"/>
<path d="M63.6499 11.1644C63.2245 11.1666 62.8348 10.9277 62.6449 10.5469L58.6786 2.6185L50.7492 6.58603C50.1976 6.86188 49.5264 6.63745 49.2506 6.08575C48.9747 5.53418 49.1991 4.863 49.7508 4.58715L58.6842 0.120527C59.2358 -0.155325 59.907 0.0680523 60.1828 0.619625V0.620802L64.6494 9.55418C64.9219 10.1069 64.6941 10.7769 64.1413 11.0494C63.9883 11.1241 63.8208 11.1644 63.6499 11.1644Z" fill="#ED1C24"/>
</g>
<defs>
<clipPath id="clip0_1_2213">
<rect width="67" height="67" fill="white"/>
</clipPath>
</defs>
</svg>
