<svg width="67" height="67" viewBox="0 0 67 67" fill="none" xmlns="http://www.w3.org/2000/svg">
<path d="M62.7861 67L33.5001 62.7502L4.21399 67V4.24966L33.5001 0L62.7861 4.24966V67Z" fill="#FBBA00"/>
<path d="M4.21399 4.24966V67L33.5001 62.7502V0L4.21399 4.24966Z" fill="#FBDB80"/>
<path d="M26.3259 15.1424L11.3883 17.311V21.4552L26.3259 19.2879V15.1424Z" fill="#FBBA00"/>
<path d="M11.3883 58.616L26.3259 56.4486V28.8494L11.3883 31.0169V58.616ZM15.4898 34.5662L22.2245 33.589V52.8993L15.4898 53.8764C15.4897 53.8764 15.4897 34.5662 15.4898 34.5662Z" fill="#FBBA00"/>
<path d="M26.3259 8.38391L11.3883 10.5526V14.6967L26.3259 12.5295V8.38391Z" fill="#FBBA00"/>
<path d="M26.3259 21.9353L11.3883 24.1039V28.248L26.3259 26.0808V21.9353Z" fill="#FBBA00"/>
<path d="M40.6743 15.1424L55.6119 17.311V21.4552L40.6743 19.2879V15.1424Z" fill="#F28E00"/>
<path d="M55.6119 31.0169L40.6743 28.8494V56.4486L55.6119 58.616V31.0169ZM51.5105 53.8764L44.7758 52.8993V33.589L51.5105 34.5662V53.8764Z" fill="#F28E00"/>
<path d="M40.6743 8.38391L55.6119 10.5526V14.6967L40.6743 12.5295V8.38391Z" fill="#F28E00"/>
<path d="M40.6743 21.9353L55.6119 24.1039V28.248L40.6743 26.0808V21.9353Z" fill="#F28E00"/>
</svg>
