<svg width="67" height="67" viewBox="0 0 67 67" fill="none" xmlns="http://www.w3.org/2000/svg">
<path d="M57.8398 33.5C57.8398 37.469 61.0681 40.6973 65.0371 40.6973C66.1206 40.6973 67 41.5766 67 42.6602V53.1289C67 54.2124 66.1206 55.0918 65.0371 55.0918H1.96289C0.879375 55.0918 0 54.2124 0 53.1289V42.6602C0 41.5766 0.879375 40.6973 1.96289 40.6973C5.93186 40.6973 9.16016 37.469 9.16016 33.5C9.16016 29.531 5.93186 26.3027 1.96289 26.3027C0.879375 26.3027 0 25.4234 0 24.3398V13.8711C0 12.7876 0.879375 11.9082 1.96289 11.9082H65.0371C66.1206 11.9082 67 12.7876 67 13.8711V24.3398C67 25.4234 66.1206 26.3027 65.0371 26.3027C61.0681 26.3027 57.8398 29.531 57.8398 33.5Z" fill="#FFAE39"/>
<path d="M49.8574 11.9082H45.9316V55.0918H49.8574V11.9082Z" fill="#FC9D26"/>
<path d="M65.0371 40.6973C61.0681 40.6973 57.8398 37.469 57.8398 33.5H9.16016C9.16016 37.469 5.93186 40.6973 1.96289 40.6973C0.879375 40.6973 0 41.5766 0 42.6602V53.1289C0 54.2124 0.879375 55.0918 1.96289 55.0918H65.0371C66.1206 55.0918 67 54.2124 67 53.1289V42.6602C67 41.5766 66.1206 40.6973 65.0371 40.6973Z" fill="#FC9D26"/>
<path d="M49.8574 33.5H45.9316V55.0918H49.8574V33.5Z" fill="#F88D13"/>
<path d="M29.5742 43.9688C28.4902 43.9688 27.6113 43.0899 27.6113 42.0059V36.7715C27.6113 35.6874 28.4902 34.8086 29.5742 34.8086C30.6583 34.8086 31.5371 35.6874 31.5371 36.7715V42.0059C31.5371 43.0899 30.6583 43.9688 29.5742 43.9688Z" fill="#0B4EB1"/>
<path d="M36.1172 34.9227V24.9941C36.1172 23.9101 35.2383 23.0312 34.1543 23.0312H24.9941C23.9101 23.0312 23.0312 23.9101 23.0312 24.9941V34.9227C22.2694 35.1924 21.7227 35.9172 21.7227 36.7715C21.7227 37.8555 22.6015 38.7344 23.6855 38.7344H24.9941H34.1543H35.4629C36.5469 38.7344 37.4258 37.8555 37.4258 36.7715C37.4258 35.9172 36.8791 35.1924 36.1172 34.9227Z" fill="#F8EB76"/>
<path d="M23.0312 33.5V34.9227C22.2694 35.1924 21.7227 35.9172 21.7227 36.7715C21.7227 37.8555 22.6015 38.7344 23.6855 38.7344H24.9941H34.1543H35.4629C36.5469 38.7344 37.4258 37.8555 37.4258 36.7715C37.4258 35.9172 36.8791 35.1924 36.1172 34.9227V33.5H23.0312Z" fill="#FAD557"/>
</svg>
