<svg width="67" height="67" viewBox="0 0 67 67" fill="none" xmlns="http://www.w3.org/2000/svg">
<g clip-path="url(#clip0_1_2228)">
<path d="M56.9939 67H18.1069C16.9892 67 16.0833 66.0939 16.0833 64.9764V13.4824C16.0833 12.3647 16.9893 11.4588 18.1069 11.4588H56.9938C58.1115 11.4588 59.0174 12.3649 59.0174 13.4824V64.9764C59.0176 66.0939 58.1115 67 56.9939 67Z" fill="#BDBDBD"/>
<path d="M52.9434 61.2706H14.0564C12.9388 61.2706 12.0328 60.3645 12.0328 59.247V7.75304C12.0328 6.63537 12.9389 5.72943 14.0564 5.72943H52.9434C54.0611 5.72943 54.967 6.6355 54.967 7.75304V59.247C54.9671 60.3647 54.0611 61.2706 52.9434 61.2706Z" fill="#D4D4D4"/>
<path d="M48.8931 55.5413H10.006C8.88836 55.5413 7.98242 54.6352 7.98242 53.5177V2.02361C7.98242 0.90607 8.88849 0 10.006 0H48.893C50.0107 0 50.9166 0.90607 50.9166 2.02361V53.5176C50.9167 54.6352 50.0108 55.5413 48.8931 55.5413Z" fill="#F5F5F5"/>
<path d="M46.8663 0V55.5413H48.8915C50.01 55.5413 50.9167 54.636 50.9167 53.5191V2.02217C50.9167 0.905285 50.01 0 48.8915 0L46.8663 0Z" fill="#E6E6E6"/>
<path d="M22.3782 23.2545H15.3682C15.0704 23.2545 14.8289 23.0131 14.8289 22.7152V15.7052C14.8289 15.4074 15.0704 15.166 15.3682 15.166H22.3782C22.676 15.166 22.9175 15.4074 22.9175 15.7052V22.7152C22.9175 23.0131 22.676 23.2545 22.3782 23.2545Z" fill="#FF3D7A"/>
<path d="M22.3782 36.331H15.3682C15.0704 36.331 14.8289 36.0895 14.8289 35.7917V28.7817C14.8289 28.4839 15.0704 28.2424 15.3682 28.2424H22.3782C22.676 28.2424 22.9175 28.4839 22.9175 28.7817V35.7917C22.9175 36.0895 22.676 36.331 22.3782 36.331Z" fill="#8CF2FF"/>
<path d="M22.3782 49.4074H15.3682C15.0704 49.4074 14.8289 49.166 14.8289 48.8681V41.8581C14.8289 41.5603 15.0704 41.3188 15.3682 41.3188H22.3782C22.676 41.3188 22.9175 41.5603 22.9175 41.8581V48.8681C22.9175 49.166 22.676 49.4074 22.3782 49.4074Z" fill="#FFCA28"/>
<path d="M27.9055 17.7652H44.0825C44.6247 17.7652 45.064 17.3259 45.064 16.7837C45.064 16.2416 44.6247 15.8023 44.0825 15.8023H27.9055C27.3634 15.8023 26.924 16.2416 26.924 16.7837C26.924 17.3259 27.3633 17.7652 27.9055 17.7652Z" fill="#7488ED"/>
<path d="M44.0824 20.1162H27.9055C27.3634 20.1162 26.924 20.5555 26.924 21.0977C26.924 21.6398 27.3634 22.0791 27.9055 22.0791H44.0825C44.6247 22.0791 45.064 21.6398 45.064 21.0977C45.064 20.5555 44.6246 20.1162 44.0824 20.1162Z" fill="#7488ED"/>
<path d="M44.0824 28.8788H27.9055C27.3634 28.8788 26.924 29.3181 26.924 29.8603C26.924 30.4024 27.3634 30.8417 27.9055 30.8417H44.0825C44.6247 30.8417 45.064 30.4024 45.064 29.8603C45.064 29.3181 44.6246 28.8788 44.0824 28.8788Z" fill="#7488ED"/>
<path d="M44.0824 33.1926H27.9055C27.3634 33.1926 26.924 33.6319 26.924 34.1741C26.924 34.7162 27.3634 35.1555 27.9055 35.1555H44.0825C44.6247 35.1555 45.064 34.7162 45.064 34.1741C45.064 33.6319 44.6246 33.1926 44.0824 33.1926Z" fill="#7488ED"/>
<path d="M44.0824 41.9551H27.9055C27.3634 41.9551 26.924 42.3944 26.924 42.9365C26.924 43.4787 27.3634 43.918 27.9055 43.918H44.0825C44.6247 43.918 45.064 43.4787 45.064 42.9365C45.064 42.3944 44.6246 41.9551 44.0824 41.9551Z" fill="#7488ED"/>
<path d="M44.0824 46.269H27.9055C27.3634 46.269 26.924 46.7083 26.924 47.2504C26.924 47.7926 27.3634 48.2319 27.9055 48.2319H44.0825C44.6247 48.2319 45.064 47.7926 45.064 47.2504C45.064 46.7083 44.6246 46.269 44.0824 46.269Z" fill="#7488ED"/>
<path d="M38.9597 9.50403H20.3561C19.0531 9.50403 17.9969 8.44787 17.9969 7.1449C17.9969 5.84193 19.0531 4.78577 20.3561 4.78577H38.9597C40.2627 4.78577 41.3188 5.84193 41.3188 7.1449C41.3188 8.44774 40.2627 9.50403 38.9597 9.50403Z" fill="#8C9EFF"/>
<path d="M26.0905 14.3266C25.7386 13.9144 25.1191 13.8654 24.7068 14.2173L19.8977 18.3225L18.9203 17.2637C18.5527 16.8655 17.9318 16.8407 17.5335 17.2082C17.1351 17.5758 17.1103 18.1968 17.478 18.5951L19.0957 20.3477C19.2888 20.5569 19.5523 20.6635 19.8172 20.6635C20.0429 20.6635 20.2696 20.586 20.4541 20.4284L25.9812 15.7102C26.3935 15.3583 26.4424 14.7389 26.0905 14.3266Z" fill="#8C9EFF"/>
</g>
<defs>
<clipPath id="clip0_1_2228">
<rect width="67" height="67" fill="white"/>
</clipPath>
</defs>
</svg>
