<?xml version="1.0" encoding="UTF-8"?>
<svg version="1.1" xmlns="http://www.w3.org/2000/svg" width="93" height="111">
<path d="M0 0 C30.69 0 61.38 0 93 0 C93 36.63 93 73.26 93 111 C62.31 111 31.62 111 0 111 C0 74.37 0 37.74 0 0 Z " fill="#575CA0" transform="translate(0,0)"/>
<path d="M0 0 C30.69 0 61.38 0 93 0 C93 36.63 93 73.26 93 111 C62.31 111 31.62 111 0 111 C0 74.37 0 37.74 0 0 Z M15 29 C7.98633302 38.93732417 5.31196722 48.2452242 6.17578125 60.4921875 C7.94031813 70.22387572 13.10840234 79.96810261 21 86 C30.12732773 92.21543773 39.60444321 94.47453225 50.53125 94.36328125 C51.48898315 94.36377975 52.44671631 94.36427826 53.43347168 94.36479187 C55.43678893 94.3624699 57.44011015 94.3528538 59.44335938 94.33618164 C62.51979272 94.31234665 65.59537127 94.31566473 68.671875 94.32226562 C70.62500519 94.31669582 72.57813174 94.30959036 74.53125 94.30078125 C75.45200317 94.30169266 76.37275635 94.30260406 77.32141113 94.30354309 C78.16989624 94.29401108 79.01838135 94.28447906 79.89257812 94.2746582 C80.63963013 94.27005081 81.38668213 94.26544342 82.15637207 94.26069641 C84.24732606 94.15343318 84.24732606 94.15343318 86 92 C86.2128092 89.21002411 86.30395391 86.52218317 86.30078125 83.73046875 C86.30720894 82.4824926 86.30720894 82.4824926 86.31376648 81.20930481 C86.31952085 79.43975737 86.32000193 77.67018627 86.31567383 75.90063477 C86.3125568 73.2360579 86.33580623 70.57263901 86.36132812 67.90820312 C86.42161497 52.08670969 84.92859382 38.31536224 73.6875 26.1875 C65.22408524 18.23076417 54.6170092 14.62960965 43.09765625 14.8515625 C32.00532825 15.63649446 22.48326702 20.82354614 15 29 Z " fill="#FCFDFE" transform="translate(0,0)"/>
<path d="M0 0 C5.52461611 2.41074157 8.53478146 6.62144476 11 12 C11.62543987 15.3056546 11.61519613 18.45872168 11.5 21.8125 C11.50386719 23.0799707 11.50386719 23.0799707 11.5078125 24.37304688 C11.41150086 30.43586482 11.41150086 30.43586482 9.7355957 32.73339844 C6.47103914 35.11580376 2.58833493 34.46988429 -1.3125 34.4375 C-2.57610352 34.4674707 -2.57610352 34.4674707 -3.86523438 34.49804688 C-10.28974747 34.4930238 -13.98765942 32.99087497 -18.64453125 28.3671875 C-23.25748196 22.4737187 -23.7570815 18.43411971 -23 11 C-17.98437893 0.78299411 -10.53989703 -0.95314927 0 0 Z " fill="#FAFBFD" transform="translate(52,38)"/>
<path d="M0 0 C1.65 0 3.3 0 5 0 C5 3.3 5 6.6 5 10 C2.327664 6.43688534 1.22736029 4.15414253 0 0 Z " fill="#D9689D" transform="translate(88,36)"/>
</svg>
